<?xml version="1.0" encoding="UTF-8"?>
<svg width="28px" height="25px" viewBox="0 0 28 25" version="1.1" xmlns="http://www.w3.org/2000/svg" xmlns:xlink="http://www.w3.org/1999/xlink">
    <!-- Generator: Sketch 47.1 (45422) - http://www.bohemiancoding.com/sketch -->
    <title>Ad_Photo</title>
    <desc>Created with Sketch.</desc>
    <defs></defs>
    <g id="Page-1" stroke="none" stroke-width="1" fill="none" fill-rule="evenodd">
        <path d="M14.3391813,22.2007579 C9.88847953,22.2007579 6.26900585,18.5183368 6.26900585,13.9902316 C6.26900585,9.46212632 9.88847953,5.77970526 14.3391813,5.77970526 C18.789883,5.77970526 22.4093567,9.46212632 22.4093567,13.9902316 C22.4093567,18.5183368 18.789883,22.2007579 14.3391813,22.2007579 M25.0994152,4.41128421 C26.5843275,4.41128421 27.7894737,5.63738947 27.7894737,7.14812632 L27.7894737,22.2007579 C27.7894737,23.7114947 26.5843275,24.9376 25.0994152,24.9376 L3.57894737,24.9376 C2.09269006,24.9376 0.888888889,23.7114947 0.888888889,22.2007579 L0.888888889,7.14812632 C0.888888889,5.63738947 2.09269006,4.41128421 3.57894737,4.41128421 L6.1748538,4.41128421 C7.07333333,4.41128421 7.91397661,3.95423158 8.41298246,3.19202105 L9.5051462,1.52391579 C10.004152,0.763073684 10.8447953,0.306021053 11.7432749,0.306021053 L16.9350877,0.306021053 C17.8335673,0.306021053 18.6742105,0.763073684 19.1732164,1.52391579 L20.2653801,3.19202105 C20.764386,3.95423158 21.6050292,4.41128421 22.5035088,4.41128421 L25.0994152,4.41128421 Z M14.3391813,8.51654737 C11.3720468,8.51654737 8.95906433,10.9714947 8.95906433,13.9902316 C8.95906433,17.0089684 11.3720468,19.4639158 14.3391813,19.4639158 C17.3063158,19.4639158 19.7192982,17.0089684 19.7192982,13.9902316 C19.7192982,10.9714947 17.3063158,8.51654737 14.3391813,8.51654737 Z" id="Ad_Photo" fill="#D8D8D8"></path>
    </g>
</svg>