<?xml version="1.0" encoding="UTF-8"?>
<svg width="16px" height="24px" viewBox="0 0 16 24" version="1.1" xmlns="http://www.w3.org/2000/svg" xmlns:xlink="http://www.w3.org/1999/xlink">
    <!-- Generator: Sketch 47.1 (45422) - http://www.bohemiancoding.com/sketch -->
    <title>Audience_Age</title>
    <desc>Created with Sketch.</desc>
    <defs></defs>
    <g id="Page-1" stroke="none" stroke-width="1" fill="none" fill-rule="evenodd">
        <g id="icons" transform="translate(-158.000000, -172.000000)" fill="#4F3857">
            <path d="M165.999,189.998 C162.686,189.998 159.999,187.312 159.999,183.998 C159.999,180.686 162.686,177.998 165.999,177.998 C169.313,177.998 171.999,180.686 171.999,183.998 C171.999,187.312 169.313,189.998 165.999,189.998 L165.999,189.998 Z M168.246,194 L163.754,194 L163.016,191.417 C163.94,191.79 164.945,192 166,192 C167.055,192 168.061,191.79 168.984,191.417 L168.246,194 Z M163.754,174 L168.246,174 L168.984,176.583 C168.061,176.21 167.055,176 166,176 C164.945,176 163.94,176.21 163.016,176.583 L163.754,174 Z M171.537,178.24 C173.052,179.697 174,181.738 174,184 C174,186.263 173.052,188.305 171.537,189.761 L169.754,196 L162.246,196 L160.463,189.761 C158.948,188.305 158,186.263 158,184 C158,181.738 158.948,179.697 160.463,178.24 L162.246,172 L169.754,172 L171.537,178.24 Z M163,187.0005 L166,185.0005 L169,187.0005 L166,181.0005 L163,187.0005 Z" id="Audience_Age"></path>
        </g>
    </g>
</svg>