<?xml version="1.0" encoding="UTF-8"?>
<svg width="20px" height="18px" viewBox="0 0 20 18" version="1.1" xmlns="http://www.w3.org/2000/svg" xmlns:xlink="http://www.w3.org/1999/xlink">
    <!-- Generator: Sketch 47.1 (45422) - http://www.bohemiancoding.com/sketch -->
    <title>Audience_Interest</title>
    <desc>Created with Sketch.</desc>
    <defs></defs>
    <g id="Page-1" stroke="none" stroke-width="1" fill="none" fill-rule="evenodd">
        <g id="icons" transform="translate(-181.000000, -175.000000)" fill="#4F3857">
            <path d="M188,185.0005 C187.449,185.0005 187,184.5525 187,184.0005 C187,183.4485 187.449,183.0005 188,183.0005 C188.551,183.0005 189,183.4485 189,184.0005 C189,184.5525 188.551,185.0005 188,185.0005 M188,181.0005 C186.698,181.0005 185.599,181.8385 185.185,183.0005 L181,183.0005 L181,185.0005 L185.185,185.0005 C185.599,186.1625 186.698,187.0005 188,187.0005 C189.302,187.0005 190.401,186.1625 190.815,185.0005 L201,185.0005 L201,183.0005 L190.815,183.0005 C190.401,181.8385 189.302,181.0005 188,181.0005 M198,191.0005 C197.449,191.0005 197,190.5525 197,190.0005 C197,189.4485 197.449,189.0005 198,189.0005 C198.551,189.0005 199,189.4485 199,190.0005 C199,190.5525 198.551,191.0005 198,191.0005 M198,187.0005 C196.698,187.0005 195.599,187.8385 195.185,189.0005 L181,189.0005 L181,191.0005 L195.185,191.0005 C195.599,192.1625 196.698,193.0005 198,193.0005 C199.654,193.0005 201,191.6545 201,190.0005 C201,188.3465 199.654,187.0005 198,187.0005 M198,177.0005 C198.551,177.0005 199,177.4485 199,178.0005 C199,178.5525 198.551,179.0005 198,179.0005 C197.449,179.0005 197,178.5525 197,178.0005 C197,177.4485 197.449,177.0005 198,177.0005 M198,181.0005 C199.654,181.0005 201,179.6545 201,178.0005 C201,176.3465 199.654,175.0005 198,175.0005 C196.698,175.0005 195.599,175.8385 195.185,177.0005 L181,177.0005 L181,179.0005 L195.185,179.0005 C195.599,180.1625 196.698,181.0005 198,181.0005" id="Audience_Interest"></path>
        </g>
    </g>
</svg>