<?xml version="1.0" encoding="UTF-8"?>
<svg width="18px" height="19px" viewBox="0 0 18 19" version="1.1" xmlns="http://www.w3.org/2000/svg" xmlns:xlink="http://www.w3.org/1999/xlink">
    <!-- Generator: Sketch 47.1 (45422) - http://www.bohemiancoding.com/sketch -->
    <title>Audience_Target</title>
    <desc>Created with Sketch.</desc>
    <defs></defs>
    <g id="Page-1" stroke="none" stroke-width="1" fill="none" fill-rule="evenodd">
        <path d="M9.00882,8.10045 C8.51292,8.10045 8.10882,8.50455 8.10882,9.00045 C8.10882,9.49635 8.51292,9.90045 9.00882,9.90045 C9.50472,9.90045 9.90882,9.49635 9.90882,9.00045 C9.90882,8.50455 9.50472,8.10045 9.00882,8.10045 M9.00882,11.70045 C7.52022,11.70045 6.30882,10.48905 6.30882,9.00045 C6.30882,7.51185 7.52022,6.30045 9.00882,6.30045 C10.49742,6.30045 11.70882,7.51185 11.70882,9.00045 C11.70882,10.48905 10.49742,11.70045 9.00882,11.70045 M3.22254,13.27104 C1.14264,10.45404 1.36944,6.45804 3.91824,3.90924 C6.72534,1.10214 11.29284,1.10214 14.09994,3.90924 C16.64874,6.45804 16.87554,10.45494 14.79564,13.27104 C15.21324,13.76154 15.54624,14.31234 15.78474,14.90814 C18.86634,11.37744 18.73584,5.99814 15.37254,2.63574 C11.86434,-0.87246 6.15384,-0.87246 2.64564,2.63574 C-0.71676,5.99814 -0.84816,11.37744 2.23254,14.90724 C2.47104,14.31054 2.80584,13.76154 3.22254,13.27104 M5.82939,11.41218 C4.59279,9.82368 4.68639,7.52958 6.14439,6.06978 C6.91029,5.30478 7.92729,4.88358 9.00909,4.88358 C10.09089,4.88358 11.10789,5.30478 11.87289,6.06978 C13.33089,7.52958 13.42449,9.82368 12.18879,11.41218 C12.77019,11.65068 13.30389,11.95218 13.77909,12.31128 C15.39549,10.02888 15.18849,6.84108 13.14549,4.79718 C12.04119,3.69198 10.57239,3.08358 9.00909,3.08358 C7.44579,3.08358 5.97699,3.69198 4.87179,4.79718 C2.82969,6.84108 2.62269,10.02888 4.23909,12.31128 C4.71429,11.95218 5.24799,11.65068 5.82939,11.41218 M5.40882,17.10045 L12.60882,17.10045 C12.60882,15.53625 11.09502,14.40045 9.00972,14.40045 C6.92352,14.40045 5.40882,15.53625 5.40882,17.10045 L5.40882,17.10045 Z M14.40882,18.90045 L3.60882,18.90045 L3.60882,17.10045 C3.60882,14.53545 5.93082,12.60045 9.00972,12.60045 C12.08772,12.60045 14.40882,14.53545 14.40882,17.10045 L14.40882,18.90045 Z" id="Audience_Target" fill="#4F3857"></path>
    </g>
</svg>