<?xml version="1.0" encoding="UTF-8"?>
<svg width="20px" height="18px" viewBox="0 0 20 18" version="1.1" xmlns="http://www.w3.org/2000/svg" xmlns:xlink="http://www.w3.org/1999/xlink">
    <!-- Generator: Sketch 47.1 (45422) - http://www.bohemiancoding.com/sketch -->
    <title>Custsomize</title>
    <desc>Created with Sketch.</desc>
    <defs></defs>
    <g id="Page-1" stroke="none" stroke-width="1" fill="none" fill-rule="evenodd">
        <g id="icons" transform="translate(-106.000000, -321.000000)" fill="#2B2B2B">
            <path d="M113,327.0005 C114.654,327.0005 116,328.3465 116,330.0005 C116,331.6545 114.654,333.0005 113,333.0005 C111.346,333.0005 110,331.6545 110,330.0005 C110,328.3465 111.346,327.0005 113,327.0005 Z M123,321.0005 C124.654,321.0005 126,322.3465 126,324.0005 C126,325.6545 124.654,327.0005 123,327.0005 C121.346,327.0005 120,325.6545 120,324.0005 C120,322.3465 121.346,321.0005 123,321.0005 Z M123,333.0005 C124.654,333.0005 126,334.3465 126,336.0005 C126,337.6545 124.654,339.0005 123,339.0005 C121.346,339.0005 120,337.6545 120,336.0005 C120,334.3465 121.346,333.0005 123,333.0005 Z M108.5,330.0005 C108.5,330.3455 108.547,330.6775 108.621,331.0005 L106,331.0005 L106,329.0005 L108.621,329.0005 C108.547,329.3235 108.5,329.6555 108.5,330.0005 Z M118.5,336.0005 C118.5,336.3455 118.547,336.6775 118.621,337.0005 L106,337.0005 L106,335.0005 L118.621,335.0005 C118.547,335.3235 118.5,335.6555 118.5,336.0005 Z M117.3789,329.0005 L125.9999,329.0005 L125.9999,331.0005 L117.3789,331.0005 C117.4529,330.6775 117.4999,330.3455 117.4999,330.0005 C117.4999,329.6555 117.4529,329.3235 117.3789,329.0005 Z M118.5,324.0005 C118.5,324.3455 118.547,324.6775 118.621,325.0005 L106,325.0005 L106,323.0005 L118.621,323.0005 C118.547,323.3235 118.5,323.6555 118.5,324.0005 Z" id="Custsomize"></path>
        </g>
    </g>
</svg>