<?xml version="1.0" encoding="UTF-8"?>
<svg width="10px" height="19px" viewBox="0 0 10 19" version="1.1" xmlns="http://www.w3.org/2000/svg" xmlns:xlink="http://www.w3.org/1999/xlink">
    <!-- Generator: Sketch 47.1 (45422) - http://www.bohemiancoding.com/sketch -->
    <title>Gender_Female</title>
    <desc>Created with Sketch.</desc>
    <defs></defs>
    <g id="Page-1" stroke="none" stroke-width="1" fill="none" fill-rule="evenodd">
        <g id="icons" transform="translate(-203.000000, -239.000000)" fill="#909090">
            <path d="M208,243.0005 C207.449,243.0005 207,242.5515 207,242.0005 C207,241.4495 207.449,241.0005 208,241.0005 C208.551,241.0005 209,241.4495 209,242.0005 C209,242.5515 208.551,243.0005 208,243.0005 M211,242.0005 C211,240.3465 209.654,239.0005 208,239.0005 C206.346,239.0005 205,240.3465 205,242.0005 C205,243.6545 206.346,245.0005 208,245.0005 C209.654,245.0005 211,243.6545 211,242.0005 M209.999,253.0005 C209.265,253.0005 209.216,253.0005 208.267,256.0005 L207.733,256.0005 C206.822,253.1205 206.738,253.0005 206.082,253.0005 C206.005,253.0015 205.506,253.0025 205.276,253.0005 C205.276,253.0005 205.913,250.4675 206.505,248.1995 C206.644,247.5165 207.287,247.0005 208,247.0005 C208.713,247.0005 209.356,247.5165 209.507,248.2545 C210.064,250.3685 210.724,253.0005 210.724,253.0005 C210.494,253.0025 210.058,253.0005 209.999,253.0005 M211.455,247.8015 C211.126,246.1795 209.672,245.0005 208,245.0005 C206.328,245.0005 204.875,246.1795 204.558,247.7465 C203.923,250.1605 204.196,249.0915 203.03,253.7575 C202.956,254.0535 203.02,254.3655 203.205,254.6075 C203.39,254.8495 203.674,254.9935 203.979,255.0005 C203.979,255.0005 204.723,255.0165 205.31,255.0185 C205.502,255.5915 205.789,256.4835 206.046,257.3015 C206.177,257.7175 206.564,258.0005 207,258.0005 L209,258.0005 C209.437,258.0005 209.823,257.7175 209.954,257.3015 C210.211,256.4835 210.499,255.5915 210.69,255.0185 C211.277,255.0165 212.022,255.0005 212.022,255.0005 C212.326,254.9935 212.61,254.8495 212.795,254.6075 C212.98,254.3655 213.044,254.0535 212.97,253.7575 C211.84,249.2345 212.033,249.9845 211.455,247.8015" id="Gender_Female"></path>
        </g>
    </g>
</svg>