<?xml version="1.0" encoding="UTF-8"?>
<svg width="42px" height="39px" viewBox="0 0 42 39" version="1.1" xmlns="http://www.w3.org/2000/svg" xmlns:xlink="http://www.w3.org/1999/xlink">
    <!-- Generator: Sketch 47.1 (45422) - http://www.bohemiancoding.com/sketch -->
    <title>Mobile_Main_Home</title>
    <desc>Created with Sketch.</desc>
    <defs></defs>
    <g id="Page-1" stroke="none" stroke-width="1" fill="none" fill-rule="evenodd">
        <g id="icons" transform="translate(-95.000000, -381.000000)" fill="#767676">
            <path d="M99.9980641,398.294312 L103.816289,390.607951 L128.1842,390.607951 L132.002424,398.294312 L99.9980641,398.294312 Z M119.818469,415.588625 L119.818469,411.745444 L112.182019,411.745444 L112.182019,415.588625 L104.54557,415.588625 L104.54557,402.137493 L127.454919,402.137493 L127.454919,415.588625 L119.818469,415.588625 Z M108.363795,384.843181 L110.272907,384.843181 L110.272907,386.764771 L108.363795,386.764771 L108.363795,384.843181 Z M121.727582,384.843181 L123.636694,384.843181 L123.636694,386.764771 L121.727582,386.764771 L121.727582,384.843181 Z M136.798115,399.356952 L131.070778,387.82741 C130.748138,387.175991 130.087585,386.764771 129.364031,386.764771 L127.454919,386.764771 L127.454919,382.92159 C127.454919,381.860872 126.599636,381 125.545806,381 L119.818469,381 C118.764639,381 117.909357,381.860872 117.909357,382.92159 L117.909357,386.764771 L114.091132,386.764771 L114.091132,382.92159 C114.091132,381.860872 113.23585,381 112.182019,381 L106.454682,381 C105.400852,381 104.54557,381.860872 104.54557,382.92159 L104.54557,386.764771 L102.636457,386.764771 C101.912904,386.764771 101.252351,387.175991 100.927802,387.82741 L95.2004646,399.356952 C94.9064613,399.952645 94.9370071,400.65979 95.2844656,401.226659 C95.6319241,401.793528 96.2466582,402.137493 96.9091202,402.137493 L100.727345,402.137493 L100.727345,417.510215 C100.727345,418.570933 101.582627,419.431805 102.636457,419.431805 L129.364031,419.431805 C130.417861,419.431805 131.273144,418.570933 131.273144,417.510215 L131.273144,402.137493 L135.091368,402.137493 C135.75383,402.137493 136.366655,401.793528 136.714114,401.226659 C137.063481,400.65979 137.094027,399.952645 136.798115,399.356952 L136.798115,399.356952 Z" id="Mobile_Main_Home"></path>
        </g>
    </g>
</svg>