<?xml version="1.0" encoding="UTF-8"?>
<svg width="26px" height="26px" viewBox="0 0 26 26" version="1.1" xmlns="http://www.w3.org/2000/svg" xmlns:xlink="http://www.w3.org/1999/xlink">
    <!-- Generator: Sketch 47.1 (45422) - http://www.bohemiancoding.com/sketch -->
    <title>Ad_Link</title>
    <desc>Created with Sketch.</desc>
    <defs></defs>
    <g id="Page-1" stroke="none" stroke-width="1" fill="none" fill-rule="evenodd">
        <path d="M23.9794214,11.7802498 L19.0986071,16.6594498 C16.4047868,19.3548512 12.0347243,19.3548512 9.34044887,16.6594498 C8.91605497,16.2362524 8.58404924,15.7594087 8.29249177,15.2676601 L10.5603253,13.0000071 C10.6681305,12.8912922 10.8012513,12.8289987 10.9284557,12.7556119 C11.0852425,13.2912789 11.3589368,13.7983875 11.7802018,14.2197076 C13.125519,15.5660998 15.3146179,15.5642225 16.6591387,14.2197076 L21.5384169,9.34062133 C22.8847582,7.99439971 22.8847582,5.80582248 21.5384169,4.46062487 C20.1938392,3.11542726 18.0053093,3.11542726 16.6591387,4.46062487 L14.9240731,6.19756023 C13.5160638,5.64932081 11.9991117,5.50192137 10.5223802,5.71832718 L14.2196702,2.02116709 C16.9150835,-0.673722363 21.2840082,-0.673722363 23.9794214,2.02116709 C26.6735262,4.71594276 26.6735262,9.08553099 23.9794214,11.7802498 Z M11.0767092,19.8033073 L9.34039198,21.5402427 C7.99518848,22.8847576 5.80597589,22.8847576 4.46054484,21.5402427 C3.11522756,20.1938504 3.11522756,18.0052732 4.46054484,16.6594498 L9.34039198,11.7802498 C10.6866764,10.4341419 12.8744098,10.4341419 14.2196133,11.7802498 C14.6399112,12.2006596 14.9138899,12.7076545 15.0721558,13.2426388 C15.2000998,13.1682848 15.3315709,13.1078687 15.4393191,12.9999502 L17.706982,10.7332075 C17.4173019,10.2395246 17.0835895,9.76438759 16.6590249,9.3407351 C13.9654321,6.64584565 9.59497143,6.64584565 6.90007018,9.3407351 L2.0209626,14.219992 C-0.6736542,16.9156779 -0.6736542,21.2840146 2.0209626,23.9794729 C4.71586384,26.673509 9.08530053,26.673509 11.7801449,23.9794729 L15.478402,20.2815164 C14.0008741,20.4991737 12.4835237,20.3505227 11.0767092,19.8033073 Z" id="Ad_Link" fill="#2B2B2B" fill-rule="nonzero"></path>
    </g>
</svg>