<?xml version="1.0" encoding="UTF-8"?>
<svg width="18px" height="18px" viewBox="0 0 18 18" version="1.1" xmlns="http://www.w3.org/2000/svg" xmlns:xlink="http://www.w3.org/1999/xlink">
    <!-- Generator: Sketch 48.2 (47327) - http://www.bohemiancoding.com/sketch -->
    <title>Amazon</title>
    <desc>Created with Sketch.</desc>
    <defs></defs>
    <g id="SignUP" stroke="none" stroke-width="1" fill="none" fill-rule="evenodd" transform="translate(-562.000000, -337.000000)">
        <g id="Group" transform="translate(435.000000, 164.000000)">
            <g id="amazon" transform="translate(100.000000, 152.000000)">
                <g id="Amazon" transform="translate(24.000000, 18.000000)">
                    <rect id="Rectangle-3" x="0" y="0" width="24" height="24"></rect>
                    <g id="amazon" transform="translate(3.000000, 3.000000)" fill="#FFFFFF">
                        <g>
                            <path d="M9.40171429,9.74506306 C9.12371429,10.300837 8.64611429,10.6590068 8.12931429,10.7807325 C8.05091429,10.7807325 7.93191429,10.8201732 7.81211429,10.8201732 C6.93871429,10.8201732 6.42211429,10.1430741 6.42211429,9.14884738 C6.42211429,7.87533231 7.17631429,7.27911664 8.12931429,7.00022865 C8.64611429,6.88110564 9.24251429,6.84066388 9.83891429,6.84066388 L9.83891429,7.31895778 C9.83891429,8.23330196 9.87811429,8.94904106 9.40171429,9.74506306 L9.40171429,9.74506306 Z M9.83891429,5.01277635 C9.32211429,5.05161646 8.72571429,5.09085698 8.12931429,5.16953823 C7.21571429,5.29026289 6.30311429,5.44862642 5.54871429,5.80719669 C4.07891429,6.40381278 3.08571429,7.67652702 3.08571429,9.54585735 C3.08571429,11.893882 4.59471429,13.086914 6.50271429,13.086914 C7.13711429,13.086914 7.65391429,13.0066311 8.12931429,12.8881087 C8.88591429,12.6490618 9.52051429,12.2118103 10.2751143,11.4151877 C10.7123143,12.0124044 10.8321143,12.2914926 11.5855143,12.9275494 C11.7849143,13.0066311 11.9835143,13.0066311 12.1415143,12.8881087 C12.6191143,12.4896973 13.4541143,11.7733575 13.8903143,11.3763476 C14.0887143,11.216983 14.0495143,10.9779362 13.9295143,10.7807325 C13.4935143,10.2227563 13.0551143,9.74506306 13.0551143,8.67075369 L13.0551143,5.09085698 C13.0551143,3.57909589 13.1751143,2.1864578 12.0629143,1.15359123 C11.1493143,0.31872913 9.71891429,0 8.60691429,0 L8.12931429,0 C6.10471429,0.117321149 3.96011429,0.993626049 3.48271429,3.50001422 C3.40311429,3.81874335 3.64191429,3.93726574 3.80091429,3.97670647 L6.02511429,4.25499384 C6.26391429,4.21575332 6.38271429,4.01594699 6.42211429,3.81874335 C6.62051429,2.94303907 7.33551429,2.50538714 8.12931429,2.42570486 L8.28971429,2.42570486 C8.76611429,2.42570486 9.28291429,2.62471036 9.55991429,3.02272136 C9.87811429,3.50001422 9.83891429,4.13707207 9.83891429,4.69404722 L9.83891429,5.01277635 Z" id="Fill-172"></path>
                            <path d="M0.432015138,13.3714286 C0.322415138,13.3714286 0.210815138,13.4122707 0.129215138,13.4889499 C0.047615138,13.5660295 -0.000984861984,13.6779451 1.51380158e-05,13.7912621 C-0.000984861984,13.9388145 0.078615138,14.0737538 0.189215138,14.1618448 C2.47021514,16.1448925 4.97021514,17.9879958 8.33241514,17.9895974 C8.39741514,17.9895974 8.46461514,17.9879958 8.53081514,17.9863941 C10.6702151,17.9383445 13.0886151,17.2151978 14.9656151,16.0337778 L14.9770151,16.0263701 C15.2228151,15.8796186 15.4688151,15.7122458 15.7004151,15.5266541 C15.8440151,15.4195435 15.9434151,15.2523709 15.9434151,15.0783912 C15.9370151,14.7694722 15.6756151,14.5602562 15.3934151,14.5602562 C15.3036151,14.5594554 15.2116151,14.5804771 15.1258151,14.6209188 C15.0298151,14.6597589 14.9304151,14.7042048 14.8374151,14.7434454 L14.7010151,14.8005043 L14.5232151,14.8719781 L14.5232151,14.8739802 C12.5916151,15.6579897 10.5628151,16.118265 8.68581514,16.1585066 C8.61661514,16.1605087 8.54741514,16.1605087 8.48021514,16.1605087 C5.52741514,16.1621103 3.11921514,14.7906941 0.688415138,13.4392987 C0.603615138,13.3948528 0.516815138,13.3714286 0.432015138,13.3714286" id="Fill-173"></path>
                            <path d="M17.7080407,13.6335446 C17.6998407,13.4451501 17.6604407,13.3028031 17.5818407,13.1832796 L17.5736407,13.1724685 L17.5642407,13.1606563 C17.4846407,13.0735663 17.4082407,13.0409326 17.3254407,13.0042948 C17.0796407,12.9093968 16.7208407,12.8587445 16.2888407,12.8571429 C15.9788407,12.8571429 15.6366407,12.8867735 15.2926407,12.961851 L15.2916407,12.9390274 L14.9454407,13.0549471 L14.9392407,13.0575498 L14.7438407,13.1212155 L14.7438407,13.1300246 C14.5142407,13.2251228 14.3056407,13.3442459 14.1112407,13.4843906 C13.9914407,13.5750842 13.8910407,13.6946076 13.8858407,13.8777968 C13.8828407,13.9772996 13.9334407,14.0922182 14.0172407,14.1598881 C14.1010407,14.2281586 14.1980407,14.2509822 14.2838407,14.2509822 C14.3044407,14.2509822 14.3230407,14.2499811 14.3406407,14.2473785 L14.3572407,14.2457768 L14.3696407,14.2431741 C14.5392407,14.2075373 14.7862407,14.1837127 15.0746407,14.1426703 C15.3226407,14.115242 15.5850407,14.0952213 15.8124407,14.0952213 C15.9736407,14.0940201 16.1184407,14.1056321 16.2176407,14.1272544 C16.2670407,14.1376652 16.3044407,14.1504784 16.3250407,14.1608891 C16.3324407,14.1634918 16.3374407,14.1666951 16.3406407,14.1686972 C16.3448407,14.1827117 16.3508407,14.2177479 16.3498407,14.2679998 C16.3518407,14.458997 16.2712407,14.8129625 16.1606407,15.1581189 C16.0522407,15.503876 15.9210407,15.8502336 15.8342407,16.0804714 C15.8134407,16.1337264 15.8000407,16.1915861 15.8000407,16.2554521 C15.7980407,16.3479476 15.8362407,16.4598631 15.9158407,16.53434 C15.9944407,16.608817 16.0956407,16.6384476 16.1804407,16.6384476 L16.1846407,16.6384476 C16.3116407,16.6368459 16.4202407,16.586594 16.5132407,16.5131181 C17.3916407,15.7219011 17.6976407,14.458997 17.7100407,13.7478626 L17.7080407,13.6345456 L17.7080407,13.6335446 Z" id="Fill-174"></path>
                        </g>
                    </g>
                </g>
            </g>
        </g>
    </g>
</svg>