<?xml version="1.0" encoding="UTF-8"?>
<svg width="44px" height="44px" viewBox="0 0 44 44" version="1.1" xmlns="http://www.w3.org/2000/svg" xmlns:xlink="http://www.w3.org/1999/xlink">
    <!-- Generator: Sketch 48.2 (47327) - http://www.bohemiancoding.com/sketch -->
    <title>Fill 321</title>
    <desc>Created with Sketch.</desc>
    <defs></defs>
    <g id="Mobile-2" stroke="none" stroke-width="1" fill="none" fill-rule="evenodd" transform="translate(-432.000000, -986.000000)">
        <g id="Fill-303-+-Fill-304-+-Fill-305" transform="translate(430.000000, 984.000000)" fill="#D4D4D4">
            <g id="Fill-321-+-Fill-322" transform="translate(2.000000, 2.000000)">
                <path d="M3.85240775,15.1078393 L3.85240775,32.4436742 L9.63101939,32.4436742 L9.63101939,36.2960819 L14.7682051,32.4436742 L28.8930582,32.4436742 L28.8930582,15.1078393 L3.85240775,15.1078393 Z M5.77861163,44.0008974 L5.77861163,36.2960819 L3.85240775,36.2960819 C1.72780488,36.2960819 0,34.568277 0,32.4436742 L0,15.1078393 C0,12.9832364 1.72780488,11.2554315 3.85240775,11.2554315 L28.8930582,11.2554315 C31.017661,11.2554315 32.7454659,12.9832364 32.7454659,15.1078393 L32.7454659,32.4436742 C32.7454659,34.568277 31.017661,36.2960819 28.8930582,36.2960819 L16.0510569,36.2960819 L5.77861163,44.0008974 Z M39.0262664,4.97463102 L44,4.97463102 L44,8.29045341 L39.0262664,8.29045341 L39.0262664,13.264187 L35.710444,13.264187 L35.710444,8.29045341 L30.7367104,8.29045341 L30.7367104,4.97463102 L35.710444,4.97463102 L35.710444,0.000897435897 L39.0262664,0.000897435897 L39.0262664,4.97463102 Z" id="Fill-321"></path>
            </g>
        </g>
    </g>
</svg>