<?xml version="1.0" encoding="UTF-8"?>
<svg width="18px" height="12px" viewBox="0 0 18 12" version="1.1" xmlns="http://www.w3.org/2000/svg" xmlns:xlink="http://www.w3.org/1999/xlink">
    <!-- Generator: Sketch 48.2 (47327) - http://www.bohemiancoding.com/sketch -->
    <title>eye</title>
    <desc>Created with Sketch.</desc>
    <defs></defs>
    <g id="New_Password" stroke="none" stroke-width="1" fill="none" fill-rule="evenodd" transform="translate(-867.000000, -419.000000)">
        <g id="email_signup" transform="translate(435.000000, 245.000000)" fill="#9B9B9B">
            <g id="input-copy-3" transform="translate(100.000000, 128.000000)">
                <g id="eye" transform="translate(332.000000, 46.000000)">
                    <g id="Fill-1">
                        <path d="M8.97883163,0.0449361702 C5.54785714,0.0449361702 2.43638265,2.13237447 0.140464286,5.52311489 C-0.0468367347,5.8008 -0.0468367347,6.18893617 0.140464286,6.46682553 C2.43638265,9.86134468 5.54785714,11.9489872 8.97883163,11.9489872 C12.4099898,11.9489872 15.5213265,9.86134468 17.8172449,6.47080851 C18.0046837,6.19291915 18.0046837,5.80498723 17.8172449,5.52709787 C15.5213265,2.13237447 12.4099898,0.0449361702 8.97883163,0.0449361702 Z M9.22490816,10.1883064 C6.9474949,10.3476766 5.06663265,8.26003404 5.20994388,5.72318298 C5.32744898,3.63155745 6.85189286,1.93628936 8.7327551,1.80561702 C11.010352,1.64624681 12.8910306,3.73368511 12.7479031,6.27074043 C12.6266327,8.35817872 11.1021888,10.0534468 9.22490816,10.1883064 Z M9.11121429,8.25186383 C7.88413776,8.3376 6.87035204,7.21419574 6.95107653,5.84987234 C7.01347959,4.72248511 7.83642857,3.81150638 8.85021429,3.73787234 C10.0772908,3.65213617 11.0910765,4.77554043 11.010352,6.13986383 C10.9441837,7.27148936 10.1214184,8.18241702 9.11121429,8.25186383 Z"></path>
                    </g>
                </g>
            </g>
        </g>
    </g>
</svg>