<?xml version="1.0" encoding="UTF-8"?>
<svg width="9px" height="18px" viewBox="0 0 9 18" version="1.1" xmlns="http://www.w3.org/2000/svg" xmlns:xlink="http://www.w3.org/1999/xlink">
    <!-- Generator: Sketch 48.2 (47327) - http://www.bohemiancoding.com/sketch -->
    <title>facebook</title>
    <desc>Created with Sketch.</desc>
    <defs></defs>
    <g id="SignUP" stroke="none" stroke-width="1" fill="none" fill-rule="evenodd" transform="translate(-567.000000, -481.000000)">
        <g id="Group" transform="translate(435.000000, 164.000000)">
            <g id="facebook" transform="translate(100.000000, 296.000000)">
                <g transform="translate(24.000000, 18.000000)">
                    <rect id="Rectangle-3" x="0" y="0" width="24" height="24"></rect>
                    <path d="M14.1391542,21 L14.1391542,12.9 L16.5983239,12.9 L17,9.3 L14.1391542,9.3 L14.1391542,7.5468 C14.1391542,6.6198 14.1628338,5.7 15.4581953,5.7 L16.7702202,5.7 L16.7702202,3.126 C16.7702202,3.0873 15.6432469,3 14.5031183,3 C12.1220035,3 10.6310661,4.4913 10.6310661,7.23 L10.6310661,9.3 L8,9.3 L8,12.9 L10.6310661,12.9 L10.6310661,21 L14.1391542,21 Z" id="facebook-[#176]" fill="#FFFFFF"></path>
                </g>
            </g>
        </g>
    </g>
</svg>