<?xml version="1.0" encoding="UTF-8"?>
<svg width="24px" height="20px" viewBox="0 0 24 20" version="1.1" xmlns="http://www.w3.org/2000/svg" xmlns:xlink="http://www.w3.org/1999/xlink">
    <!-- Generator: Sketch 47.1 (45422) - http://www.bohemiancoding.com/sketch -->
    <title>Gender_All</title>
    <desc>Created with Sketch.</desc>
    <defs></defs>
    <g id="Page-1" stroke="none" stroke-width="1" fill="none" fill-rule="evenodd">
        <g id="icons" transform="translate(-26.000000, -238.000000)" fill="#2A2A2A">
            <path d="M31,243.0005 C30.449,243.0005 30,242.5515 30,242.0005 C30,241.4495 30.449,241.0005 31,241.0005 C31.551,241.0005 32,241.4495 32,242.0005 C32,242.5515 31.551,243.0005 31,243.0005 M34,242.0005 C34,240.3465 32.654,239.0005 31,239.0005 C29.346,239.0005 28,240.3465 28,242.0005 C28,243.6545 29.346,245.0005 31,245.0005 C32.654,245.0005 34,243.6545 34,242.0005 M32.999,253.0005 C32.265,253.0005 32.216,253.0005 31.267,256.0005 L30.733,256.0005 C29.822,253.1205 29.738,253.0005 29.082,253.0005 C29.005,253.0015 28.506,253.0025 28.276,253.0005 C28.276,253.0005 28.913,250.4675 29.505,248.1995 C29.644,247.5165 30.287,247.0005 31,247.0005 C31.713,247.0005 32.356,247.5165 32.507,248.2545 C33.064,250.3685 33.724,253.0005 33.724,253.0005 C33.494,253.0025 33.058,253.0005 32.999,253.0005 M34.455,247.8015 C34.126,246.1795 32.672,245.0005 31,245.0005 C29.328,245.0005 27.875,246.1795 27.558,247.7465 C26.923,250.1605 27.196,249.0915 26.03,253.7575 C25.956,254.0535 26.02,254.3655 26.205,254.6075 C26.39,254.8495 26.674,254.9935 26.979,255.0005 C26.979,255.0005 27.723,255.0165 28.31,255.0185 C28.502,255.5915 28.789,256.4835 29.046,257.3015 C29.177,257.7175 29.564,258.0005 30,258.0005 L32,258.0005 C32.437,258.0005 32.823,257.7175 32.954,257.3015 C33.211,256.4835 33.499,255.5915 33.69,255.0185 C34.277,255.0165 35.022,255.0005 35.022,255.0005 C35.326,254.9935 35.61,254.8495 35.795,254.6075 C35.98,254.3655 36.044,254.0535 35.97,253.7575 C34.84,249.2345 35.033,249.9845 34.455,247.8015 M48,251.0005 L47,251.0005 C46.448,251.0005 46,251.4485 46,252.0005 L46,256.0005 L44,256.0005 L44,252.0005 C44,251.4485 43.552,251.0005 43,251.0005 L42,251.0005 L42,249.0005 C42,247.3465 43.346,246.0005 45,246.0005 C46.654,246.0005 48,247.3465 48,249.0005 L48,251.0005 Z M45,244.0005 C42.243,244.0005 40,246.2435 40,249.0005 L40,252.0005 C40,252.5525 40.448,253.0005 41,253.0005 L42,253.0005 L42,257.0005 C42,257.5525 42.448,258.0005 43,258.0005 L47,258.0005 C47.552,258.0005 48,257.5525 48,257.0005 L48,253.0005 L49,253.0005 C49.552,253.0005 50,252.5525 50,252.0005 L50,249.0005 C50,246.2435 47.757,244.0005 45,244.0005 L45,244.0005 Z M45,242.0005 C44.449,242.0005 44,241.5515 44,241.0005 C44,240.4495 44.449,240.0005 45,240.0005 C45.551,240.0005 46,240.4495 46,241.0005 C46,241.5515 45.551,242.0005 45,242.0005 M48,241.0005 C48,239.3465 46.654,238.0005 45,238.0005 C43.346,238.0005 42,239.3465 42,241.0005 C42,242.6545 43.346,244.0005 45,244.0005 C46.654,244.0005 48,242.6545 48,241.0005" id="Gender_All"></path>
        </g>
    </g>
</svg>