<?xml version="1.0" encoding="UTF-8"?>
<svg width="10px" height="20px" viewBox="0 0 10 20" version="1.1" xmlns="http://www.w3.org/2000/svg" xmlns:xlink="http://www.w3.org/1999/xlink">
    <!-- Generator: Sketch 47.1 (45422) - http://www.bohemiancoding.com/sketch -->
    <title>Gender_Male</title>
    <desc>Created with Sketch.</desc>
    <defs></defs>
    <g id="Page-1" stroke="none" stroke-width="1" fill="none" fill-rule="evenodd">
        <g id="icons" transform="translate(-118.000000, -238.000000)" fill="#909090">
            <path d="M123,242.0005 C122.449,242.0005 122,241.5515 122,241.0005 C122,240.4495 122.449,240.0005 123,240.0005 C123.551,240.0005 124,240.4495 124,241.0005 C124,241.5515 123.551,242.0005 123,242.0005 M126,241.0005 C126,239.3465 124.654,238.0005 123,238.0005 C121.346,238.0005 120,239.3465 120,241.0005 C120,242.6545 121.346,244.0005 123,244.0005 C124.654,244.0005 126,242.6545 126,241.0005 M126,251.0005 L125,251.0005 C124.448,251.0005 124,251.4485 124,252.0005 L124,256.0005 L122,256.0005 L122,252.0005 C122,251.4485 121.552,251.0005 121,251.0005 L120,251.0005 L120,249.0005 C120,247.3465 121.346,246.0005 123,246.0005 C124.654,246.0005 126,247.3465 126,249.0005 L126,251.0005 Z M123,244.0005 C120.243,244.0005 118,246.2435 118,249.0005 L118,252.0005 C118,252.5525 118.448,253.0005 119,253.0005 L120,253.0005 L120,257.0005 C120,257.5525 120.448,258.0005 121,258.0005 L125,258.0005 C125.552,258.0005 126,257.5525 126,257.0005 L126,253.0005 L127,253.0005 C127.552,253.0005 128,252.5525 128,252.0005 L128,249.0005 C128,246.2435 125.757,244.0005 123,244.0005 L123,244.0005 Z" id="Gender_Male"></path>
        </g>
    </g>
</svg>