<?xml version="1.0" encoding="UTF-8"?>
<svg width="18px" height="18px" viewBox="0 0 18 18" version="1.1" xmlns="http://www.w3.org/2000/svg" xmlns:xlink="http://www.w3.org/1999/xlink">
    <!-- Generator: Sketch 48.2 (47327) - http://www.bohemiancoding.com/sketch -->
    <title>Google</title>
    <desc>Created with Sketch.</desc>
    <defs></defs>
    <g id="SignUP" stroke="none" stroke-width="1" fill="none" fill-rule="evenodd" transform="translate(-562.000000, -409.000000)">
        <g id="Group" transform="translate(435.000000, 164.000000)">
            <g id="google" transform="translate(100.000000, 224.000000)">
                <g id="Google" transform="translate(24.000000, 18.000000)">
                    <rect id="Rectangle-3" x="0" y="0" width="24" height="24"></rect>
                    <path d="M20.8393829,10.2034785 L12.1901685,10.2034785 C12.1901685,11.1029721 12.1901685,12.9019594 12.1846547,13.8014531 L17.1966411,13.8014531 C17.0045793,14.7009467 16.3236328,15.9602378 15.3614858,16.5943808 C15.3605669,16.5934814 15.3596479,16.5997778 15.35781,16.5988783 C14.0786232,17.4435029 12.3905009,17.635095 11.1370448,17.3832368 C9.17231678,16.9928565 7.61744312,15.5680586 6.98612031,13.7582774 C6.98979613,13.7555789 6.992553,13.7303931 6.99530987,13.7285941 C6.60015876,12.606026 6.60015876,11.1029721 6.99530987,10.2034785 L6.99439091,10.2034785 C7.50349257,8.55020917 9.10523299,7.04175832 11.0727179,6.62889074 C12.6551602,6.29337961 14.4406919,6.65677504 15.7538801,7.88548336 C15.9284817,7.71457957 18.1707345,5.52521203 18.3389035,5.34711229 C13.85256,1.28409949 6.66908047,2.7133949 3.98113399,7.96014134 L3.98021504,7.96014134 C3.98021504,7.96014134 3.98113399,7.96014134 3.97562026,7.97003577 L3.97562026,7.97003577 C2.64589084,10.5470851 2.7010282,13.5837756 3.98480982,16.0375943 C3.98113399,16.0402928 3.97837712,16.0420918 3.97562026,16.0447902 C5.13901863,18.3025193 7.25629339,20.0340446 9.80731542,20.6933734 C12.5173168,21.4039734 15.9661589,20.9182468 18.2764145,18.8287231 C18.2773334,18.8296226 18.2782524,18.8305221 18.2791713,18.8314215 C20.2365477,17.068414 21.4550835,14.0650047 20.8393829,10.2034785" id="google-[#178]" fill="#FFFFFF"></path>
                </g>
            </g>
        </g>
    </g>
</svg>