<?xml version="1.0" encoding="UTF-8"?>
<svg width="12px" height="12px" viewBox="0 0 12 12" version="1.1" xmlns="http://www.w3.org/2000/svg" xmlns:xlink="http://www.w3.org/1999/xlink">
    <!-- Generator: Sketch 48.2 (47327) - http://www.bohemiancoding.com/sketch -->
    <title>ic_password_unactive</title>
    <desc>Created with Sketch.</desc>
    <defs></defs>
    <g id="New_Password" stroke="none" stroke-width="1" fill="none" fill-rule="evenodd" transform="translate(-549.000000, -419.000000)">
        <g id="email_signup" transform="translate(435.000000, 245.000000)">
            <g id="input-copy-3" transform="translate(100.000000, 128.000000)">
                <g id="ic_password_unactive" transform="translate(12.000000, 44.000000)">
                    <g id="icon">
                        <rect id="Rectangle-3" x="0" y="0" width="16" height="16"></rect>
                        <g id="shopping_bag-[#1148]" transform="translate(2.000000, 2.000000)" fill="#ADACAC">
                            <path d="M6.6,6.65576875 L6.6,9.04799402 C6.6,9.37812111 6.3312,9.64605034 6,9.64605034 C5.6688,9.64605034 5.4,9.37812111 5.4,9.04799402 L5.4,6.65576875 C5.4,6.32564166 5.6688,6.05771243 6,6.05771243 C6.3312,6.05771243 6.6,6.32564166 6.6,6.65576875 L6.6,6.65576875 Z M10.8,10.205831 C10.8,10.5359581 10.5312,10.8038874 10.2,10.8038874 L1.8,10.8038874 C1.4688,10.8038874 1.2,10.5359581 1.2,10.205831 L1.2,5.42138051 C1.2,5.09065537 1.4688,4.8233242 1.8,4.8233242 L10.2,4.8233242 C10.5312,4.8233242 10.8,5.09065537 10.8,5.42138051 L10.8,10.205831 Z M6,1.19073013 C7.3554,1.19073013 8.5326,2.43109893 8.8878,3.62721156 L3.0576,3.62721156 C3.3258,2.43109893 4.5624,1.19073013 6,1.19073013 L6,1.19073013 Z M10.8,3.62721156 L10.1256,3.62721156 C9.759,1.83304261 8.0202,0 6,0 C3.918,0 2.136,1.83304261 1.8462,3.62721156 L1.2,3.62721156 C0.537,3.62721156 0,4.20074757 0,4.8615998 L0,10.842163 C0,11.5030152 0.537,12 1.2,12 L10.8,12 C11.463,12 12,11.5030152 12,10.842163 L12,4.8615998 C12,4.20074757 11.463,3.62721156 10.8,3.62721156 L10.8,3.62721156 Z"></path>
                        </g>
                    </g>
                </g>
            </g>
        </g>
    </g>
</svg>