<?xml version="1.0" encoding="UTF-8"?>
<svg width="36px" height="39px" viewBox="0 0 36 39" version="1.1" xmlns="http://www.w3.org/2000/svg" xmlns:xlink="http://www.w3.org/1999/xlink">
    <!-- Generator: Sketch 47.1 (45422) - http://www.bohemiancoding.com/sketch -->
    <title>Mobile_Main_User</title>
    <desc>Created with Sketch.</desc>
    <defs></defs>
    <g id="Page-1" stroke="none" stroke-width="1" fill="none" fill-rule="evenodd">
        <g id="icons" transform="translate(-172.000000, -376.000000)" fill="#D4D4D4">
            <path d="M190,392.363636 C186.490455,392.363636 183.636364,389.509545 183.636364,386 C183.636364,382.492045 186.490455,379.636364 190,379.636364 C193.509545,379.636364 196.363636,382.492045 196.363636,386 C196.363636,389.509545 193.509545,392.363636 190,392.363636 M190,376 C184.485,376 180,380.485 180,386 C180,391.515 184.485,396 190,396 C195.515,396 200,391.515 200,386 C200,380.485 195.515,376 190,376 M176,411 L204,411 C204,405.70125 198.243667,402 190,402 C181.756333,402 176,405.70125 176,411 L176,411 Z M208,415 L172,415 L172,410.75 C172,403.242375 179.4025,398 190,398 C200.5975,398 208,403.242375 208,410.75 L208,415 Z" id="Mobile_Main_User"></path>
        </g>
    </g>
</svg>