<?xml version="1.0" encoding="UTF-8"?>
<svg width="18px" height="18px" viewBox="0 0 18 18" version="1.1" xmlns="http://www.w3.org/2000/svg" xmlns:xlink="http://www.w3.org/1999/xlink">
    <!-- Generator: Sketch 47.1 (45422) - http://www.bohemiancoding.com/sketch -->
    <title>Preview</title>
    <desc>Created with Sketch.</desc>
    <defs></defs>
    <g id="Page-1" stroke="none" stroke-width="1" fill="none" fill-rule="evenodd">
        <g id="icons" transform="translate(-185.000000, -323.000000)" fill="#9A9A9A">
            <path d="M198.95,338.3 C197.7098,338.3 196.7,337.2902 196.7,336.05 C196.7,334.8098 197.7098,333.8 198.95,333.8 C200.1902,333.8 201.2,334.8098 201.2,336.05 C201.2,337.2902 200.1902,338.3 198.95,338.3 M189.05,338.3 C187.8098,338.3 186.8,337.2902 186.8,336.05 C186.8,334.8098 187.8098,333.8 189.05,333.8 C190.2902,333.8 191.3,334.8098 191.3,336.05 C191.3,337.2902 190.2902,338.3 189.05,338.3 M202.9604,335.3354 L199.6979,324.7316 C199.3784,323.6966 198.4361,323 197.3534,323 C196.0007,323 194.9,324.1007 194.9,325.4534 L194.9,326.6 L193.1,326.6 L193.1,325.4534 C193.1,324.1007 191.9993,323 190.6466,323 C189.5639,323 188.6216,323.6966 188.3021,324.7316 L185.0396,335.3354 C185.0135,335.4209 185,335.51 185,335.6 L185,336.05 C185,338.2838 186.8171,340.1 189.05,340.1 C191.2829,340.1 193.1,338.2838 193.1,336.05 L193.1,332 L194.9,332 L194.9,336.05 C194.9,338.2838 196.7171,340.1 198.95,340.1 C201.1829,340.1 203,338.2838 203,336.05 L203,335.6 C203,335.51 202.9865,335.4209 202.9604,335.3354" id="Preview"></path>
        </g>
    </g>
</svg>