<?xml version="1.0" encoding="UTF-8"?>
<svg width="16px" height="20px" viewBox="0 0 16 20" version="1.1" xmlns="http://www.w3.org/2000/svg" xmlns:xlink="http://www.w3.org/1999/xlink">
    <!-- Generator: Sketch 48.2 (47327) - http://www.bohemiancoding.com/sketch -->
    <title>Fill 878</title>
    <desc>Created with Sketch.</desc>
    <defs></defs>
    <g id="Mobile---Confirmation-Modal" stroke="none" stroke-width="1" fill="none" fill-rule="evenodd" transform="translate(-237.000000, -68.000000)">
        <g id="Composite-Button" transform="translate(225.000000, 60.000000)" fill="#7D7D7D">
            <g id="Fill-30" transform="translate(8.000000, 6.000000)">
                <g id="Fill-876-+-Fill-877-+-Fill-878">
                    <path d="M6,20 L6,4 L18,4 L18.001,20 L6,20 Z M18,2 C19.103,2 20,2.897 20,4 L20,20 C20,21.102 19.103,22 18,22 L6,22 C4.897,22 4,21.102 4,20 L4,4 C4,2.897 4.897,2 6,2 L18,2 Z M11,12.5859 L9.707,11.2929 L8.293,12.7069 L11,15.4149 L15.707,10.7069 L14.293,9.2929 L11,12.5859 Z" id="Fill-878"></path>
                </g>
            </g>
        </g>
    </g>
</svg>