<?xml version="1.0" encoding="UTF-8"?>
<svg width="12px" height="12px" viewBox="0 0 12 12" version="1.1" xmlns="http://www.w3.org/2000/svg" xmlns:xlink="http://www.w3.org/1999/xlink">
    <!-- Generator: Sketch 48.2 (47327) - http://www.bohemiancoding.com/sketch -->
    <title>ic_user_unactive</title>
    <desc>Created with Sketch.</desc>
    <defs></defs>
    <g id="SignUp_email" stroke="none" stroke-width="1" fill="none" fill-rule="evenodd" transform="translate(-549.000000, -241.000000)">
        <g id="email_signup" transform="translate(435.000000, 51.000000)">
            <g id="input" transform="translate(100.000000, 144.000000)">
                <g id="ic_user_unactive" transform="translate(12.000000, 44.000000)">
                    <rect id="Rectangle-3" x="0" y="0" width="16" height="16"></rect>
                    <path d="M11.9375287,12.7999862 L4.0629028,12.7999862 C3.63906822,12.7999862 3.32609211,12.3817862 3.4859488,11.9971862 C4.2276593,10.2187862 5.97015839,9.19998617 7.99990952,9.19998617 C10.0302731,9.19998617 11.7727722,10.2187862 12.5144827,11.9971862 C12.6743394,12.3817862 12.3613633,12.7999862 11.9375287,12.7999862 M5.54999868,5.59998617 C5.54999868,4.27638617 6.64939617,3.19998617 7.99990952,3.19998617 C9.35103534,3.19998617 10.4498204,4.27638617 10.4498204,5.59998617 C10.4498204,6.92358617 9.35103534,7.99998617 7.99990952,7.99998617 C6.64939617,7.99998617 5.54999868,6.92358617 5.54999868,5.59998617 M13.9734046,12.5815862 C13.5281333,10.5661862 12.135359,9.07878617 10.3022132,8.40378617 C11.2736029,7.63758617 11.8401448,6.39858617 11.6319023,5.04198617 C11.3905861,3.46818617 10.0541598,2.20878617 8.44089347,2.02518617 C6.21392452,1.77138617 4.32504326,3.46938617 4.32504326,5.59998617 C4.32504326,6.73398617 4.86157373,7.74438617 5.69821828,8.40378617 C3.86446002,9.07878617 2.47229819,10.5661862 2.02641441,12.5815862 C1.8647203,13.3141862 2.46739837,13.9999862 3.23238302,13.9999862 L12.767436,13.9999862 C13.5330331,13.9999862 14.1357112,13.3141862 13.9734046,12.5815862" id="profile_round-[#1342]-copy" fill="#ADACAC" fill-rule="evenodd"></path>
                </g>
            </g>
        </g>
    </g>
</svg>