<svg width="28" height="25" viewBox="0 0 28 25" xmlns="http://www.w3.org/2000/svg"><title>Ad_Photo</title><path d="M14.34 22.2c-4.452 0-8.071-3.682-8.071-8.21 0-4.528 3.62-8.21 8.07-8.21s8.07 3.682 8.07 8.21c0 4.528-3.62 8.21-8.07 8.21M25.1 4.412c1.485 0 2.69 1.226 2.69 2.737v15.053c0 1.51-1.205 2.737-2.69 2.737H3.58c-1.486 0-2.69-1.227-2.69-2.737V7.148c0-1.51 1.204-2.737 2.69-2.737h2.596c.898 0 1.739-.457 2.238-1.219l1.092-1.668A2.68 2.68 0 0 1 11.743.306h5.192c.899 0 1.74.457 2.238 1.218l1.092 1.668a2.678 2.678 0 0 0 2.239 1.22h2.595zM14.34 8.517c-2.967 0-5.38 2.454-5.38 5.473 0 3.019 2.413 5.474 5.38 5.474s5.38-2.455 5.38-5.474-2.413-5.473-5.38-5.473z" fill="#D8D8D8" fill-rule="evenodd"/></svg>