<svg width="20" height="18" viewBox="0 0 20 18" xmlns="http://www.w3.org/2000/svg"><title>Audience_Interest</title><path d="M7 10a1.001 1.001 0 0 1 0-2 1.001 1.001 0 0 1 0 2m0-4a2.993 2.993 0 0 0-2.815 2H0v2h4.185A2.993 2.993 0 0 0 7 12a2.993 2.993 0 0 0 2.815-2H20V8H9.815A2.993 2.993 0 0 0 7 6m10 10a1.001 1.001 0 0 1 0-2 1.001 1.001 0 0 1 0 2m0-4a2.993 2.993 0 0 0-2.815 2H0v2h14.185A2.993 2.993 0 0 0 17 18c1.654 0 3-1.345 3-3 0-1.654-1.346-3-3-3m0-10a1.001 1.001 0 0 1 0 2 1.001 1.001 0 0 1 0-2m0 4c1.654 0 3-1.345 3-3 0-1.654-1.346-3-3-3a2.993 2.993 0 0 0-2.815 2H0v2h14.185A2.993 2.993 0 0 0 17 6" fill="#4F3857" fill-rule="evenodd"/></svg>