<svg width="18" height="19" viewBox="0 0 18 19" xmlns="http://www.w3.org/2000/svg"><title>Audience_Target</title><path d="M9.009 8.1c-.496 0-.9.405-.9.9 0 .496.404.9.9.9s.9-.404.9-.9c0-.495-.404-.9-.9-.9m0 3.6a2.703 2.703 0 0 1-2.7-2.7c0-1.488 1.211-2.7 2.7-2.7 1.488 0 2.7 1.212 2.7 2.7 0 1.49-1.212 2.7-2.7 2.7m-5.786 1.571c-2.08-2.817-1.854-6.813.695-9.362 2.807-2.807 7.375-2.807 10.182 0 2.549 2.549 2.776 6.546.696 9.362.417.49.75 1.041.989 1.637 3.081-3.53 2.95-8.91-.412-12.272-3.509-3.508-9.22-3.508-12.727 0-3.363 3.362-3.494 8.741-.413 12.271a5.916 5.916 0 0 1 .99-1.636m2.606-1.859C4.593 9.824 4.686 7.53 6.144 6.07A4.027 4.027 0 0 1 9.01 4.884a4.02 4.02 0 0 1 2.864 1.186c1.458 1.46 1.551 3.754.316 5.342.581.239 1.115.54 1.59.9 1.616-2.283 1.41-5.47-.634-7.515A5.808 5.808 0 0 0 9.01 3.084a5.812 5.812 0 0 0-4.137 1.713c-2.042 2.044-2.25 5.232-.633 7.514a7.103 7.103 0 0 1 1.59-.899M5.41 17.1h7.2c0-1.564-1.514-2.7-3.6-2.7-2.085 0-3.6 1.136-3.6 2.7zm9 1.8H3.61v-1.8c0-2.565 2.322-4.5 5.4-4.5 3.079 0 5.4 1.935 5.4 4.5v1.8z" fill="#4F3857" fill-rule="evenodd"/></svg>