<svg width="22" height="20" viewBox="0 0 22 20" xmlns="http://www.w3.org/2000/svg"><title>Audience_Gender</title><path d="M5 5a1.001 1.001 0 0 1 0-2 1.001 1.001 0 0 1 0 2m3-1c0-1.654-1.346-3-3-3S2 2.346 2 4c0 1.655 1.346 3 3 3s3-1.345 3-3M6.999 15c-.734 0-.783 0-1.732 3h-.534c-.911-2.88-.995-3-1.651-3a70.72 70.72 0 0 1-.806 0s.637-2.532 1.229-4.8C3.644 9.517 4.287 9 5 9c.713 0 1.356.517 1.507 1.255A495.437 495.437 0 0 1 7.724 15c-.23.002-.666 0-.725 0m1.456-5.198C8.126 8.179 6.672 7 5 7 3.328 7 1.875 8.18 1.558 9.746c-.635 2.415-.362 1.345-1.528 6.011A.998.998 0 0 0 .979 17s.744.017 1.331.018c.192.573.479 1.465.736 2.284A1 1 0 0 0 4 20h2a1 1 0 0 0 .954-.698c.257-.819.545-1.71.736-2.284.587-.001 1.332-.018 1.332-.018a1.001 1.001 0 0 0 .948-1.243c-1.13-4.523-.937-3.773-1.515-5.955M20 13h-1a1 1 0 0 0-1 1v4h-2v-4a1 1 0 0 0-1-1h-1v-2c0-1.654 1.346-3 3-3s3 1.346 3 3v2zm-3-7c-2.757 0-5 2.244-5 5v3a1 1 0 0 0 1 1h1v4a1 1 0 0 0 1 1h4a1 1 0 0 0 1-1v-4h1a1 1 0 0 0 1-1v-3c0-2.756-2.243-5-5-5zm0-2a1.001 1.001 0 0 1 0-2 1.001 1.001 0 0 1 0 2m3-1c0-1.654-1.346-3-3-3s-3 1.346-3 3c0 1.655 1.346 3 3 3s3-1.345 3-3" fill="#4F3857" fill-rule="evenodd"/></svg>