<svg width="20" height="18" viewBox="0 0 20 18" xmlns="http://www.w3.org/2000/svg"><title>Custsomize</title><path d="M7 6c1.654 0 3 1.346 3 3s-1.346 3-3 3-3-1.346-3-3 1.346-3 3-3zm10-6c1.654 0 3 1.346 3 3s-1.346 3-3 3-3-1.346-3-3 1.346-3 3-3zm0 12c1.654 0 3 1.346 3 3s-1.346 3-3 3-3-1.346-3-3 1.346-3 3-3zM2.5 9c0 .346.047.678.121 1H0V8h2.621A4.458 4.458 0 0 0 2.5 9zm10 6c0 .346.047.678.121 1H0v-2h12.621a4.458 4.458 0 0 0-.121 1zm-1.121-7h8.62v2h-8.62c.074-.322.12-.654.12-1 0-.344-.046-.676-.12-1zM12.5 3c0 .346.047.678.121 1H0V2h12.621a4.458 4.458 0 0 0-.121 1z" fill="#2B2B2B" fill-rule="evenodd"/></svg>