<svg width="18" height="18" viewBox="0 0 18 18" xmlns="http://www.w3.org/2000/svg"><title>Preview</title><path d="M13.95 15.3c-1.24 0-2.25-1.01-2.25-2.25s1.01-2.25 2.25-2.25 2.25 1.01 2.25 2.25-1.01 2.25-2.25 2.25m-9.9 0c-1.24 0-2.25-1.01-2.25-2.25s1.01-2.25 2.25-2.25 2.25 1.01 2.25 2.25-1.01 2.25-2.25 2.25m13.91-2.965L14.698 1.732A2.443 2.443 0 0 0 12.353 0 2.456 2.456 0 0 0 9.9 2.453V3.6H8.1V2.453C8.1 1.101 7 0 5.647 0a2.443 2.443 0 0 0-2.345 1.732L.04 12.335A.906.906 0 0 0 0 12.6v.45a4.054 4.054 0 0 0 4.05 4.05 4.054 4.054 0 0 0 4.05-4.05V9h1.8v4.05a4.054 4.054 0 0 0 4.05 4.05A4.054 4.054 0 0 0 18 13.05v-.45c0-.09-.013-.18-.04-.265" fill="#9A9A9A" fill-rule="evenodd"/></svg>