<svg width="16" height="24" viewBox="0 0 16 24" xmlns="http://www.w3.org/2000/svg"><title>Audience_Age</title><path d="M7.999 17.998a6 6 0 1 1 0-12 6 6 0 0 1 0 12zM10.246 22H5.754l-.738-2.583a7.945 7.945 0 0 0 5.968 0L10.246 22zM5.754 2h4.492l.738 2.583a7.945 7.945 0 0 0-5.968 0L5.754 2zm7.783 4.24A7.97 7.97 0 0 1 16 12a7.97 7.97 0 0 1-2.463 5.761L11.754 24H4.246l-1.783-6.239A7.97 7.97 0 0 1 0 12a7.97 7.97 0 0 1 2.463-5.76L4.246 0h7.508l1.783 6.24zM5 15l3-2 3 2-3-6-3 6z" fill="#4F3857" fill-rule="evenodd"/></svg>