<svg width="10" height="19" viewBox="0 0 10 19" xmlns="http://www.w3.org/2000/svg"><title>Gender_Female</title><path d="M5 4a1.001 1.001 0 0 1 0-2 1.001 1.001 0 0 1 0 2m3-1c0-1.654-1.346-3-3-3S2 1.346 2 3c0 1.655 1.346 3 3 3s3-1.345 3-3M6.999 14c-.734 0-.783 0-1.732 3h-.534c-.911-2.88-.995-3-1.651-3a70.72 70.72 0 0 1-.806 0s.637-2.532 1.229-4.8C3.644 8.517 4.287 8 5 8c.713 0 1.356.517 1.507 1.255A491.855 491.855 0 0 1 7.724 14c-.23.002-.666 0-.725 0m1.456-5.198C8.126 7.179 6.672 6 5 6 3.328 6 1.875 7.18 1.558 8.746c-.635 2.415-.362 1.345-1.528 6.011A.998.998 0 0 0 .979 16s.744.017 1.331.018c.192.573.479 1.465.736 2.283a1 1 0 0 0 .954.7h2a1 1 0 0 0 .954-.7c.257-.818.545-1.71.736-2.283A88.829 88.829 0 0 0 9.022 16a1.001 1.001 0 0 0 .948-1.243c-1.13-4.523-.937-3.773-1.515-5.955" fill="#909090" fill-rule="evenodd"/></svg>