<svg width="42" height="39" viewBox="0 0 42 39" xmlns="http://www.w3.org/2000/svg"><title>Mobile_Main_Home</title><path d="M4.998 17.294l3.818-7.686h24.368l3.818 7.686H4.998zm19.82 17.295v-3.844h-7.636v3.844H9.546V21.137h22.909V34.59h-7.637zM13.364 3.843h1.909v1.922h-1.91V3.843zm13.364 0h1.909v1.922h-1.91V3.843zm15.07 14.514l-5.727-11.53a1.905 1.905 0 0 0-1.707-1.062h-1.91V1.922A1.914 1.914 0 0 0 30.547 0h-5.728c-1.053 0-1.909.86-1.909 1.922v3.843h-3.818V1.922A1.917 1.917 0 0 0 17.182 0h-5.727c-1.054 0-1.91.86-1.91 1.922v3.843H7.637a1.91 1.91 0 0 0-1.708 1.062L.2 18.357a1.939 1.939 0 0 0 .084 1.87c.348.567.963.91 1.625.91h3.818V36.51c0 1.06.856 1.922 1.91 1.922h26.727c1.054 0 1.91-.861 1.91-1.922V21.137h3.817a1.9 1.9 0 0 0 1.623-.91c.35-.567.38-1.274.084-1.87z" fill="#767676" fill-rule="evenodd"/></svg>