<?xml version="1.0" encoding="UTF-8"?>
<svg width="12px" height="20px" viewBox="0 0 12 20" version="1.1" xmlns="http://www.w3.org/2000/svg" xmlns:xlink="http://www.w3.org/1999/xlink">
    <!-- Generator: Sketch 47.1 (45422) - http://www.bohemiancoding.com/sketch -->
    <title>Audience_Location</title>
    <desc>Created with Sketch.</desc>
    <defs></defs>
    <g id="Page-1" stroke="none" stroke-width="1" fill="none" fill-rule="evenodd">
        <g id="icons" transform="translate(-81.000000, -174.000000)" fill="#4F3857">
            <path d="M89.0005,180.0022 C89.0005,181.1042 88.1035,182.0022 87.0005,182.0022 C85.8975,182.0022 85.0005,181.1042 85.0005,180.0022 C85.0005,178.9002 85.8975,178.0022 87.0005,178.0022 C88.1035,178.0022 89.0005,178.9002 89.0005,180.0022 Z M83.001,194.002 L83.001,192.002 L91.001,192.002 L91.001,194.002 L83.001,194.002 Z M87.0005,176.0022 C89.2065,176.0022 91.0005,177.7962 91.0005,180.0022 C91.0005,182.5092 88.5625,186.2962 86.9995,188.3842 C85.4365,186.2982 83.0005,182.5122 83.0005,180.0022 C83.0005,177.7962 84.7945,176.0022 87.0005,176.0022 M87.0005,191.5642 C89.4035,188.6812 93.0005,183.7392 93.0005,180.0022 C93.0005,176.6932 90.3095,174.0022 87.0005,174.0022 C83.6915,174.0022 81.0005,176.6932 81.0005,180.0022 C81.0005,183.7402 84.5995,188.6822 87.0005,191.5642" id="Audience_Location"></path>
        </g>
    </g>
</svg>