<?xml version="1.0" encoding="UTF-8"?>
<svg width="22px" height="20px" viewBox="0 0 22 20" version="1.1" xmlns="http://www.w3.org/2000/svg" xmlns:xlink="http://www.w3.org/1999/xlink">
    <!-- Generator: Sketch 47.1 (45422) - http://www.bohemiancoding.com/sketch -->
    <title>Audience_Gender</title>
    <desc>Created with Sketch.</desc>
    <defs></defs>
    <g id="Page-1" stroke="none" stroke-width="1" fill="none" fill-rule="evenodd">
        <g id="icons" transform="translate(-39.000000, -174.000000)" fill="#4F3857">
            <path d="M44,179.0005 C43.449,179.0005 43,178.5515 43,178.0005 C43,177.4495 43.449,177.0005 44,177.0005 C44.551,177.0005 45,177.4495 45,178.0005 C45,178.5515 44.551,179.0005 44,179.0005 M47,178.0005 C47,176.3465 45.654,175.0005 44,175.0005 C42.346,175.0005 41,176.3465 41,178.0005 C41,179.6545 42.346,181.0005 44,181.0005 C45.654,181.0005 47,179.6545 47,178.0005 M45.999,189.0005 C45.265,189.0005 45.216,189.0005 44.267,192.0005 L43.733,192.0005 C42.822,189.1205 42.738,189.0005 42.082,189.0005 C42.005,189.0015 41.506,189.0025 41.276,189.0005 C41.276,189.0005 41.913,186.4675 42.505,184.1995 C42.644,183.5165 43.287,183.0005 44,183.0005 C44.713,183.0005 45.356,183.5165 45.507,184.2545 C46.064,186.3685 46.724,189.0005 46.724,189.0005 C46.494,189.0025 46.058,189.0005 45.999,189.0005 M47.455,183.8015 C47.126,182.1795 45.672,181.0005 44,181.0005 C42.328,181.0005 40.875,182.1795 40.558,183.7465 C39.923,186.1605 40.196,185.0915 39.03,189.7575 C38.956,190.0535 39.02,190.3655 39.205,190.6075 C39.39,190.8495 39.674,190.9935 39.979,191.0005 C39.979,191.0005 40.723,191.0165 41.31,191.0185 C41.502,191.5915 41.789,192.4835 42.046,193.3015 C42.177,193.7175 42.564,194.0005 43,194.0005 L45,194.0005 C45.437,194.0005 45.823,193.7175 45.954,193.3015 C46.211,192.4835 46.499,191.5915 46.69,191.0185 C47.277,191.0165 48.022,191.0005 48.022,191.0005 C48.326,190.9935 48.61,190.8495 48.795,190.6075 C48.98,190.3655 49.044,190.0535 48.97,189.7575 C47.84,185.2345 48.033,185.9845 47.455,183.8015 M59,187.0005 L58,187.0005 C57.448,187.0005 57,187.4485 57,188.0005 L57,192.0005 L55,192.0005 L55,188.0005 C55,187.4485 54.552,187.0005 54,187.0005 L53,187.0005 L53,185.0005 C53,183.3465 54.346,182.0005 56,182.0005 C57.654,182.0005 59,183.3465 59,185.0005 L59,187.0005 Z M56,180.0005 C53.243,180.0005 51,182.2435 51,185.0005 L51,188.0005 C51,188.5525 51.448,189.0005 52,189.0005 L53,189.0005 L53,193.0005 C53,193.5525 53.448,194.0005 54,194.0005 L58,194.0005 C58.552,194.0005 59,193.5525 59,193.0005 L59,189.0005 L60,189.0005 C60.552,189.0005 61,188.5525 61,188.0005 L61,185.0005 C61,182.2435 58.757,180.0005 56,180.0005 L56,180.0005 Z M56,178.0005 C55.449,178.0005 55,177.5515 55,177.0005 C55,176.4495 55.449,176.0005 56,176.0005 C56.551,176.0005 57,176.4495 57,177.0005 C57,177.5515 56.551,178.0005 56,178.0005 M59,177.0005 C59,175.3465 57.654,174.0005 56,174.0005 C54.346,174.0005 53,175.3465 53,177.0005 C53,178.6545 54.346,180.0005 56,180.0005 C57.654,180.0005 59,178.6545 59,177.0005" id="Audience_Gender"></path>
        </g>
    </g>
</svg>