<?xml version="1.0" encoding="UTF-8"?>
<svg width="42px" height="36px" viewBox="0 0 42 36" version="1.1" xmlns="http://www.w3.org/2000/svg" xmlns:xlink="http://www.w3.org/1999/xlink">
    <!-- Generator: Sketch 47.1 (45422) - http://www.bohemiancoding.com/sketch -->
    <title>Mobile_Main_Dashboard</title>
    <desc>Created with Sketch.</desc>
    <defs></defs>
    <g id="Page-1" stroke="none" stroke-width="1" fill="none" fill-rule="evenodd">
        <g id="icons" transform="translate(-16.000000, -387.000000)" fill="#D4D4D4">
            <path d="M53.8,418.35 L45.4,418.35 L45.4,407.85 L53.8,407.85 L53.8,418.35 Z M32.8,391.061596 L41.2,391.061596 L41.2,418.35 L32.8,418.35 L32.8,391.061596 Z M20.2,402.92612 L28.6,402.92612 L28.6,418.35 L20.2,418.35 L20.2,402.92612 Z M45.4,403.65 L45.4,389.1 C45.4,387.9429 44.4592,387 43.3,387 L30.7,387 C29.5408,387 28.6,387.9429 28.6,389.1 L28.6,398.5 L18.1,398.5 C16.9408,398.5 16,399.4429 16,400.6 L16,420.45 C16,421.6113 16.9408,422.55 18.1,422.55 L30.7,422.55 L43.3,422.55 L55.9,422.55 C57.0592,422.55 58,421.6113 58,420.45 L58,405.75 C58,404.5929 57.0592,403.65 55.9,403.65 L45.4,403.65 Z" id="Mobile_Main_Dashboard"></path>
        </g>
    </g>
</svg>